<svg width="24" height="24" viewBox="0 0 24 24" fill="none" xmlns="http://www.w3.org/2000/svg">
<path d="M6 0h12a6 6 0 0 1 6 6v12a6 6 0 0 1-6 6H6a6 6 0 0 1-6-6V6a6 6 0 0 1 6-6zm0 2a4 4 0 0 0-4 4v12a4 4 0 0 0 4 4h12a4 4 0 0 0 4-4V6a4 4 0 0 0-4-4H6z" fill="currentColor"/>
<path d="M12 2c5.523 0 10 4.477 10 10s-4.477 10-10 10S2 17.523 2 12 6.477 2 12 2zm0 2C7.582 4 4 7.582 4 12s3.582 8 8 8 8-3.582 8-8-3.582-8-8-8z" fill="currentColor"/>
<path d="M10.286 16.5h3.428L15 8h-2.143l-.857 4.5L11.143 8H9z" fill="currentColor"/>
</svg>
